<?xml version="1.0" encoding="UTF-8"?>
    <svg width="1200" height="762" viewBox="0 0 1200 762" xmlns="http://www.w3.org/2000/svg" role="img" aria-label="GitHub profile card for aceyzz">
    <defs>
    <linearGradient id="gradHeader" x1="0" x2="1" y1="0" y2="0">
      <stop offset="0%" stop-color="#58a6ff" stop-opacity="0.55"/>
      <stop offset="60%" stop-color="#7c3aed" stop-opacity="0.18"/>
      <stop offset="100%" stop-color="#7c3aed" stop-opacity="0.0"/>
    </linearGradient>
    <linearGradient id="gradLang" x1="0" x2="1" y1="0" y2="0">
      <stop offset="0%" stop-color="#58a6ff" stop-opacity="0.95"/>
      <stop offset="100%" stop-color="#7c3aed" stop-opacity="0.75"/>
    </linearGradient>
    <filter id="shadow" x="-20%" y="-20%" width="140%" height="140%">
      <feDropShadow dx="0" dy="12" stdDeviation="16" flood-color="#000" flood-opacity="0.35"/>
    </filter>
    <clipPath id="clipMade">
      <rect x="52" y="638" width="372" height="72" rx="18"/>
    </clipPath>
    <clipPath id="clipLang">
      <rect x="446" y="326" width="701" height="384" rx="18"/>
    </clipPath>
    </defs>

    <rect x="0" y="0" width="1200" height="762" fill="#0b1220"/>
    <rect x="28" y="28" width="1144" height="706" rx="18" fill="#0f1a2e" stroke="rgba(255,255,255,0.10)" filter="url(#shadow)"/>
    <rect x="28" y="28" width="1144" height="160" rx="18" fill="url(#gradHeader)" opacity="0.95"/>

    
<circle cx="106" cy="108" r="52" fill="rgba(255,255,255,0.08)" stroke="rgba(255,255,255,0.18)" stroke-width="2"/>
<text x="106" y="108" fill="#a9b7d6" font-size="18" text-anchor="middle" dominant-baseline="middle">@</text>


    <g font-family="ui-sans-serif, system-ui, -apple-system, Segoe UI, Roboto, Arial">
    <text x="188" y="60" fill="#e7eefc" font-size="32" font-weight="950" dominant-baseline="hanging">@aceyzz</text>
    <text x="188" y="100" fill="#a9b7d6" font-size="14" dominant-baseline="hanging">IT Engineer
 -   
Graduated Student at 42 Lausanne</text>
    <text x="188" y="128" fill="#a9b7d6" font-size="13" dominant-baseline="hanging">Member since 2022-09-03 • Updated 2026-03-23</text>
    <text x="1148" y="60" fill="#a9b7d6" font-size="13" text-anchor="end" dominant-baseline="hanging">https://github.com/aceyzz</text>

    
<rect x="52" y="210" width="167" height="90" rx="16" fill="#0c1526" stroke="rgba(255,255,255,0.12)"/>
<text x="70" y="228" fill="#a9b7d6" font-size="13" dominant-baseline="hanging">Followers</text>
<text x="70" y="250" fill="#e7eefc" font-size="26" font-weight="900" dominant-baseline="hanging">51</text>


    
<rect x="237" y="210" width="167" height="90" rx="16" fill="#0c1526" stroke="rgba(255,255,255,0.12)"/>
<text x="255" y="228" fill="#a9b7d6" font-size="13" dominant-baseline="hanging">Public repos</text>
<text x="255" y="250" fill="#e7eefc" font-size="26" font-weight="900" dominant-baseline="hanging">55</text>


    
<rect x="422" y="210" width="167" height="90" rx="16" fill="#0c1526" stroke="rgba(255,255,255,0.12)"/>
<text x="440" y="228" fill="#a9b7d6" font-size="13" dominant-baseline="hanging">Stars received</text>
<text x="440" y="250" fill="#e7eefc" font-size="26" font-weight="900" dominant-baseline="hanging">46</text>


    
<rect x="607" y="210" width="167" height="90" rx="16" fill="#0c1526" stroke="rgba(255,255,255,0.12)"/>
<text x="625" y="228" fill="#a9b7d6" font-size="13" dominant-baseline="hanging">Active Repos ≤ 30d</text>
<text x="625" y="250" fill="#e7eefc" font-size="26" font-weight="900" dominant-baseline="hanging">9</text>


    
<rect x="792" y="210" width="167" height="90" rx="16" fill="#0c1526" stroke="rgba(255,255,255,0.12)"/>
<text x="810" y="228" fill="#a9b7d6" font-size="13" dominant-baseline="hanging">Active days (12mo)</text>
<text x="810" y="250" fill="#e7eefc" font-size="26" font-weight="900" dominant-baseline="hanging">145</text>


    
<rect x="977" y="210" width="167" height="90" rx="16" fill="#0c1526" stroke="rgba(255,255,255,0.12)"/>
<text x="995" y="228" fill="#a9b7d6" font-size="13" dominant-baseline="hanging">Commits (12mo)</text>
<text x="995" y="250" fill="#e7eefc" font-size="26" font-weight="900" dominant-baseline="hanging">710</text>



    <rect x="446" y="326" width="701" height="384" rx="18" fill="#0c1526" stroke="rgba(255,255,255,0.12)"/>
    <rect x="52" y="638" width="372" height="72" rx="18" fill="#0c1526" stroke="rgba(255,255,255,0.12)"/>

    
<rect x="52" y="326" width="372" height="86" rx="12" fill="#0c1526" stroke="rgba(255,255,255,0.12)"/>
<text x="68" y="342" fill="#a9b7d6" font-size="10" dominant-baseline="hanging">Most Starred</text>

  <text x="68" y="362" fill="#e7eefc" font-size="14" font-weight="700" dominant-baseline="hanging">42-Exam</text>
  <text x="68" y="382" fill="#58a6ff" font-size="12" font-weight="600" dominant-baseline="hanging">⭐ 6 • 🔀 1</text>
  

    
<rect x="52" y="430" width="372" height="86" rx="12" fill="#0c1526" stroke="rgba(255,255,255,0.12)"/>
<text x="68" y="446" fill="#a9b7d6" font-size="10" dominant-baseline="hanging">Organizations</text>

    <g><circle cx="118" cy="482" r="14" fill="rgba(88,166,255,0.15)"/><text x="138" y="480" fill="#a9b7d6" font-size="10" font-weight="600" dominant-baseline="hanging">Junior...</text></g><g><circle cx="218" cy="482" r="14" fill="rgba(88,166,255,0.15)"/><text x="238" y="480" fill="#a9b7d6" font-size="10" font-weight="600" dominant-baseline="hanging">Audemars...</text></g><g><circle cx="318" cy="482" r="14" fill="rgba(88,166,255,0.15)"/><text x="338" y="480" fill="#a9b7d6" font-size="10" font-weight="600" dominant-baseline="hanging">CVCI...</text></g>
    <line x1="163" y1="474" x2="163" y2="490" stroke="rgba(255,255,255,0.12)" stroke-width="1"/><line x1="263" y1="474" x2="263" y2="490" stroke="rgba(255,255,255,0.12)" stroke-width="1"/>
    

    
<rect x="52" y="534" width="372" height="86" rx="12" fill="#0c1526" stroke="rgba(255,255,255,0.12)"/>
<text x="68" y="550" fill="#a9b7d6" font-size="10" dominant-baseline="hanging">Maintained</text>

  <text x="68" y="570" fill="#e7eefc" font-size="14" font-weight="700" dominant-baseline="hanging">12 repos</text>
  <text x="68" y="590" fill="#a9b7d6" font-size="12" dominant-baseline="hanging">Last 90 days</text>
  


    <g clip-path="url(#clipLang)">
      <text x="468" y="348" fill="#e7eefc" font-size="16" font-weight="900" dominant-baseline="hanging">Languages</text>
      
  <text x="468" y="388" fill="#a9b7d6" font-size="13" dominant-baseline="hanging">C</text>
  <text x="774" y="388" fill="#a9b7d6" font-size="13" text-anchor="end" dominant-baseline="hanging">36.9%</text>
  <rect x="468" y="405" width="306" height="10" rx="6" fill="rgba(255,255,255,0.09)"/>
  <rect x="468" y="405" width="306" height="10" rx="6" fill="url(#gradLang)"/>
  
  <text x="468" y="418" fill="#a9b7d6" font-size="13" dominant-baseline="hanging">HTML</text>
  <text x="774" y="418" fill="#a9b7d6" font-size="13" text-anchor="end" dominant-baseline="hanging">21.4%</text>
  <rect x="468" y="435" width="306" height="10" rx="6" fill="rgba(255,255,255,0.09)"/>
  <rect x="468" y="435" width="177" height="10" rx="6" fill="url(#gradLang)"/>
  
  <text x="468" y="448" fill="#a9b7d6" font-size="13" dominant-baseline="hanging">C++</text>
  <text x="774" y="448" fill="#a9b7d6" font-size="13" text-anchor="end" dominant-baseline="hanging">7.9%</text>
  <rect x="468" y="465" width="306" height="10" rx="6" fill="rgba(255,255,255,0.09)"/>
  <rect x="468" y="465" width="65" height="10" rx="6" fill="url(#gradLang)"/>
  
  <text x="468" y="478" fill="#a9b7d6" font-size="13" dominant-baseline="hanging">JavaScript</text>
  <text x="774" y="478" fill="#a9b7d6" font-size="13" text-anchor="end" dominant-baseline="hanging">6.1%</text>
  <rect x="468" y="495" width="306" height="10" rx="6" fill="rgba(255,255,255,0.09)"/>
  <rect x="468" y="495" width="50" height="10" rx="6" fill="url(#gradLang)"/>
  
  <text x="468" y="508" fill="#a9b7d6" font-size="13" dominant-baseline="hanging">Swift</text>
  <text x="774" y="508" fill="#a9b7d6" font-size="13" text-anchor="end" dominant-baseline="hanging">5.5%</text>
  <rect x="468" y="525" width="306" height="10" rx="6" fill="rgba(255,255,255,0.09)"/>
  <rect x="468" y="525" width="45" height="10" rx="6" fill="url(#gradLang)"/>
  
  <text x="468" y="538" fill="#a9b7d6" font-size="13" dominant-baseline="hanging">TeX</text>
  <text x="774" y="538" fill="#a9b7d6" font-size="13" text-anchor="end" dominant-baseline="hanging">4.3%</text>
  <rect x="468" y="555" width="306" height="10" rx="6" fill="rgba(255,255,255,0.09)"/>
  <rect x="468" y="555" width="35" height="10" rx="6" fill="url(#gradLang)"/>
  
  <text x="468" y="568" fill="#a9b7d6" font-size="13" dominant-baseline="hanging">Python</text>
  <text x="774" y="568" fill="#a9b7d6" font-size="13" text-anchor="end" dominant-baseline="hanging">3.1%</text>
  <rect x="468" y="585" width="306" height="10" rx="6" fill="rgba(255,255,255,0.09)"/>
  <rect x="468" y="585" width="25" height="10" rx="6" fill="url(#gradLang)"/>
  
  <text x="468" y="598" fill="#a9b7d6" font-size="13" dominant-baseline="hanging">Shell</text>
  <text x="774" y="598" fill="#a9b7d6" font-size="13" text-anchor="end" dominant-baseline="hanging">2.1%</text>
  <rect x="468" y="615" width="306" height="10" rx="6" fill="rgba(255,255,255,0.09)"/>
  <rect x="468" y="615" width="17" height="10" rx="6" fill="url(#gradLang)"/>
  
  <text x="468" y="628" fill="#a9b7d6" font-size="13" dominant-baseline="hanging">Makefile</text>
  <text x="774" y="628" fill="#a9b7d6" font-size="13" text-anchor="end" dominant-baseline="hanging">2.1%</text>
  <rect x="468" y="645" width="306" height="10" rx="6" fill="rgba(255,255,255,0.09)"/>
  <rect x="468" y="645" width="17" height="10" rx="6" fill="url(#gradLang)"/>
  
  <text x="468" y="658" fill="#a9b7d6" font-size="13" dominant-baseline="hanging">CSS</text>
  <text x="774" y="658" fill="#a9b7d6" font-size="13" text-anchor="end" dominant-baseline="hanging">2.0%</text>
  <rect x="468" y="675" width="306" height="10" rx="6" fill="rgba(255,255,255,0.09)"/>
  <rect x="468" y="675" width="16" height="10" rx="6" fill="url(#gradLang)"/>
  
      
  <text x="818" y="388" fill="#a9b7d6" font-size="13" dominant-baseline="hanging">OCaml</text>
  <text x="1124" y="388" fill="#a9b7d6" font-size="13" text-anchor="end" dominant-baseline="hanging">1.9%</text>
  <rect x="818" y="405" width="306" height="10" rx="6" fill="rgba(255,255,255,0.09)"/>
  <rect x="818" y="405" width="15" height="10" rx="6" fill="url(#gradLang)"/>
  
  <text x="818" y="418" fill="#a9b7d6" font-size="13" dominant-baseline="hanging">Objective-C</text>
  <text x="1124" y="418" fill="#a9b7d6" font-size="13" text-anchor="end" dominant-baseline="hanging">1.7%</text>
  <rect x="818" y="435" width="306" height="10" rx="6" fill="rgba(255,255,255,0.09)"/>
  <rect x="818" y="435" width="14" height="10" rx="6" fill="url(#gradLang)"/>
  
  <text x="818" y="448" fill="#a9b7d6" font-size="13" dominant-baseline="hanging">Perl</text>
  <text x="1124" y="448" fill="#a9b7d6" font-size="13" text-anchor="end" dominant-baseline="hanging">1.7%</text>
  <rect x="818" y="465" width="306" height="10" rx="6" fill="rgba(255,255,255,0.09)"/>
  <rect x="818" y="465" width="14" height="10" rx="6" fill="url(#gradLang)"/>
  
  <text x="818" y="478" fill="#a9b7d6" font-size="13" dominant-baseline="hanging">Roff</text>
  <text x="1124" y="478" fill="#a9b7d6" font-size="13" text-anchor="end" dominant-baseline="hanging">0.9%</text>
  <rect x="818" y="495" width="306" height="10" rx="6" fill="rgba(255,255,255,0.09)"/>
  <rect x="818" y="495" width="7" height="10" rx="6" fill="url(#gradLang)"/>
  
  <text x="818" y="508" fill="#a9b7d6" font-size="13" dominant-baseline="hanging">Astro</text>
  <text x="1124" y="508" fill="#a9b7d6" font-size="13" text-anchor="end" dominant-baseline="hanging">0.8%</text>
  <rect x="818" y="525" width="306" height="10" rx="6" fill="rgba(255,255,255,0.09)"/>
  <rect x="818" y="525" width="6" height="10" rx="6" fill="url(#gradLang)"/>
  
  <text x="818" y="538" fill="#a9b7d6" font-size="13" dominant-baseline="hanging">TypeScript</text>
  <text x="1124" y="538" fill="#a9b7d6" font-size="13" text-anchor="end" dominant-baseline="hanging">0.6%</text>
  <rect x="818" y="555" width="306" height="10" rx="6" fill="rgba(255,255,255,0.09)"/>
  <rect x="818" y="555" width="5" height="10" rx="6" fill="url(#gradLang)"/>
  
  <text x="818" y="568" fill="#a9b7d6" font-size="13" dominant-baseline="hanging">Go</text>
  <text x="1124" y="568" fill="#a9b7d6" font-size="13" text-anchor="end" dominant-baseline="hanging">0.3%</text>
  <rect x="818" y="585" width="306" height="10" rx="6" fill="rgba(255,255,255,0.09)"/>
  <rect x="818" y="585" width="2" height="10" rx="6" fill="url(#gradLang)"/>
  
  <text x="818" y="598" fill="#a9b7d6" font-size="13" dominant-baseline="hanging">Dockerfile</text>
  <text x="1124" y="598" fill="#a9b7d6" font-size="13" text-anchor="end" dominant-baseline="hanging">0.2%</text>
  <rect x="818" y="615" width="306" height="10" rx="6" fill="rgba(255,255,255,0.09)"/>
  <rect x="818" y="615" width="1" height="10" rx="6" fill="url(#gradLang)"/>
  
  <text x="818" y="628" fill="#a9b7d6" font-size="13" dominant-baseline="hanging">M4</text>
  <text x="1124" y="628" fill="#a9b7d6" font-size="13" text-anchor="end" dominant-baseline="hanging">0.1%</text>
  <rect x="818" y="645" width="306" height="10" rx="6" fill="rgba(255,255,255,0.09)"/>
  <rect x="818" y="645" width="1" height="10" rx="6" fill="url(#gradLang)"/>
  
  <text x="818" y="658" fill="#a9b7d6" font-size="13" dominant-baseline="hanging">Haskell</text>
  <text x="1124" y="658" fill="#a9b7d6" font-size="13" text-anchor="end" dominant-baseline="hanging">0.1%</text>
  <rect x="818" y="675" width="306" height="10" rx="6" fill="rgba(255,255,255,0.09)"/>
  <rect x="818" y="675" width="0" height="10" rx="6" fill="url(#gradLang)"/>
  
    </g>

    <g clip-path="url(#clipMade)">
      <text x="238" y="674" fill="#a9b7d6" font-size="14" font-weight="800" text-anchor="middle" dominant-baseline="middle">Made by aceyzz</text>
    </g>
    </g>
    </svg>
    